<svg width="25" height="25" viewBox="0 0 25 25" fill="none" xmlns="http://www.w3.org/2000/svg">
<g clip-path="url(#clip0_105_122)">
<path d="M17.9468 0.568481C15.8186 0.568481 13.8264 1.53205 12.5 3.1465C11.1736 1.532 9.18143 0.568481 7.05319 0.568481C3.16407 0.568481 0 3.73249 0 7.62167C0 10.6671 1.81593 14.1895 5.39725 18.0912C8.15335 21.0938 11.1515 23.4186 12.0048 24.0597L12.4998 24.4316L12.9949 24.0597C13.8481 23.4187 16.8464 21.0939 19.6026 18.0913C23.184 14.1896 25 10.6671 25 7.62167C25 3.73249 21.8359 0.568481 17.9468 0.568481ZM18.3882 16.9766C16.1213 19.4463 13.6823 21.4427 12.4998 22.3628C11.3174 21.4427 8.87857 19.4462 6.61159 16.9766C3.36462 13.4391 1.64835 10.2043 1.64835 7.62167C1.64835 4.64145 4.07297 2.21683 7.05319 2.21683C9.0144 2.21683 10.8253 3.28573 11.7792 5.00645L12.5 6.30678L13.2208 5.00645C14.1747 3.28579 15.9855 2.21683 17.9468 2.21683C20.927 2.21683 23.3516 4.64139 23.3516 7.62167C23.3516 10.2044 21.6353 13.4393 18.3882 16.9766Z" fill="#FF0000" fill-opacity="0.75"/>
</g>
<defs>
<clipPath id="clip0_105_122">
<rect width="25" height="25" fill="white"/>
</clipPath>
</defs>
</svg>
