<svg width="21" height="21" viewBox="0 0 21 21" fill="none" xmlns="http://www.w3.org/2000/svg">
<path d="M1.38115 17.5625H10.3187C10.6755 17.5609 11.0189 17.6981 11.2764 17.945C11.534 18.192 11.6855 18.5294 11.6988 18.8859C11.7122 19.2425 11.5865 19.5903 11.3482 19.8558C11.1099 20.1214 10.7777 20.2839 10.4218 20.3091L10.3187 20.3125H1.38115C1.02435 20.3141 0.680903 20.1769 0.423362 19.93C0.16582 19.6831 0.0143566 19.3457 0.000969152 18.9891C-0.0124183 18.6326 0.113319 18.2848 0.351617 18.0192C0.589916 17.7536 0.922113 17.5911 1.27803 17.566L1.38115 17.5625H10.3187H1.38115ZM1.38115 8.62501H19.2562C19.613 8.62342 19.9564 8.76058 20.2139 9.00752C20.4715 9.25447 20.6229 9.59186 20.6363 9.94841C20.6497 10.305 20.524 10.6528 20.2857 10.9183C20.0474 11.1839 19.7152 11.3464 19.3593 11.3716L19.2562 11.375H1.38115C1.02435 11.3766 0.680903 11.2394 0.423362 10.9925C0.16582 10.7456 0.0143566 10.4082 0.000969152 10.0516C-0.0124183 9.69507 0.113319 9.34727 0.351617 9.08171C0.589916 8.81615 0.922113 8.65361 1.27803 8.62845L1.38115 8.62501ZM10.3187 0.0312638H19.2562C19.613 0.0296671 19.9564 0.166829 20.2139 0.413774C20.4715 0.660719 20.6229 0.998106 20.6363 1.35466C20.6497 1.71121 20.524 2.05901 20.2857 2.32457C20.0474 2.59013 19.7152 2.75266 19.3593 2.77783L19.2562 2.78126H10.3187C9.96185 2.78286 9.6184 2.6457 9.36086 2.39875C9.10332 2.15181 8.95186 1.81442 8.93847 1.45787C8.92508 1.10132 9.05082 0.75352 9.28912 0.487958C9.52742 0.222396 9.85961 0.0598649 10.2155 0.0347013L10.3187 0.0312638Z" fill="white"/>
</svg>
