<svg width="25" height="25" viewBox="0 0 25 25" fill="none" xmlns="http://www.w3.org/2000/svg">
<g clip-path="url(#clip0_105_116)">
<path d="M24.5609 9.82696L21.4328 7.27755V3.20031C21.4328 2.74118 21.0593 2.36759 20.6001 2.36759H18.6319C18.1727 2.36759 17.7991 2.74118 17.7991 3.20031V4.31593L13.6194 0.909412C13.3171 0.663078 12.9186 0.527344 12.4974 0.527344C12.0778 0.527344 11.6812 0.662245 11.3805 0.907292L0.439077 9.82689C-0.0580587 10.232 -0.0282321 10.5848 0.0337679 10.7591C0.0956165 10.933 0.294789 11.2247 0.933411 11.2247H2.43163V22.9545C2.43163 23.7916 3.11083 24.4726 3.94567 24.4726H8.67705C9.50485 24.4726 10.1532 23.8057 10.1532 22.9545V18.1443C10.1532 17.7321 10.5321 17.3567 10.9481 17.3567H14.1276C14.5241 17.3567 14.8468 17.71 14.8468 18.1443V22.9545C14.8468 23.7774 15.5575 24.4726 16.3987 24.4726H21.0543C21.8892 24.4726 22.5684 23.7916 22.5684 22.9545V11.2247H24.0666C24.7052 11.2247 24.9043 10.933 24.9662 10.7591C25.0282 10.5848 25.0581 10.232 24.5609 9.82696Z" fill="#FF0000" fill-opacity="0.75"/>
</g>
<defs>
<clipPath id="clip0_105_116">
<rect width="25" height="25" fill="white"/>
</clipPath>
</defs>
</svg>
