<svg width="25" height="25" viewBox="0 0 25 25" fill="none" xmlns="http://www.w3.org/2000/svg">
<g clip-path="url(#clip0_105_73)">
<path d="M12.1984 13.3179H12.2551C14.0818 13.3179 15.5679 11.8141 15.5679 9.96566V3.53832C15.5679 1.68984 14.0818 0.186035 12.2551 0.186035H12.1984C10.3716 0.186035 8.8855 1.68984 8.8855 3.53832C8.8855 3.8219 9.11279 4.05189 9.39303 4.05189C9.67326 4.05189 9.90055 3.8219 9.90055 3.53832C9.90055 2.2563 10.9313 1.21316 12.1984 1.21316H12.2551C13.5221 1.21316 14.5529 2.2563 14.5529 3.53832V9.96566C14.5529 11.2478 13.522 12.2908 12.2551 12.2908H12.1984C10.9313 12.2908 9.90055 11.2477 9.90055 9.96566V6.30977C9.90055 6.0262 9.67326 5.79621 9.39303 5.79621C9.11279 5.79621 8.8855 6.0262 8.8855 6.30977V9.96566C8.8855 11.8141 10.3716 13.3179 12.1984 13.3179Z" fill="white"/>
<path d="M17.1808 10.0015C16.9005 10.0015 16.6733 10.2315 16.6733 10.515C16.6733 12.9684 14.7008 14.9644 12.2763 14.9644H12.1772C9.75261 14.9644 7.78019 12.9684 7.78019 10.515C7.78019 10.2315 7.5529 10.0015 7.27266 10.0015C6.99242 10.0015 6.76514 10.2315 6.76514 10.515C6.76514 13.5348 9.19298 15.9915 12.1772 15.9915H12.2763C15.2605 15.9915 17.6883 13.5348 17.6883 10.515C17.6883 10.2314 17.4611 10.0015 17.1808 10.0015Z" fill="white"/>
<path d="M12.1772 16.8378C11.897 16.8378 11.6697 17.0678 11.6697 17.3513V24.4166C11.6697 24.7002 11.897 24.9302 12.1772 24.9302C12.4574 24.9302 12.6847 24.7002 12.6847 24.4166V17.3513C12.6847 17.0677 12.4574 16.8378 12.1772 16.8378Z" fill="white"/>
</g>
<defs>
<clipPath id="clip0_105_73">
<rect width="24.4533" height="24.7442" fill="white" transform="translate(0 0.186035)"/>
</clipPath>
</defs>
</svg>
