<svg width="25" height="25" viewBox="0 0 25 25" fill="none" xmlns="http://www.w3.org/2000/svg">
<g clip-path="url(#clip0_105_118)">
<path d="M18.9846 12.1558L9.81794 5.90584C9.69002 5.81918 9.52502 5.80959 9.38835 5.88168C9.2521 5.95376 9.16669 6.09543 9.16669 6.25001V18.75C9.16669 18.9046 9.2521 19.0463 9.38877 19.1183C9.4496 19.1508 9.51669 19.1667 9.58335 19.1667C9.66544 19.1667 9.74752 19.1421 9.81794 19.0942L18.9846 12.8442C19.0984 12.7667 19.1667 12.6379 19.1667 12.5C19.1667 12.3621 19.0984 12.2333 18.9846 12.1558ZM10 17.9613V7.03876L18.0104 12.5L10 17.9613Z" fill="#FF0000" fill-opacity="0.75"/>
<path d="M12.5 0C5.6075 0 0 5.6075 0 12.5C0 19.3925 5.6075 25 12.5 25C19.3925 25 25 19.3925 25 12.5C25 5.6075 19.3925 0 12.5 0ZM12.5 24.1667C6.06708 24.1667 0.833333 18.9329 0.833333 12.5C0.833333 6.06708 6.06708 0.833333 12.5 0.833333C18.9329 0.833333 24.1667 6.06708 24.1667 12.5C24.1667 18.9329 18.9329 24.1667 12.5 24.1667Z" fill="#FF0000" fill-opacity="0.75"/>
</g>
<defs>
<clipPath id="clip0_105_118">
<rect width="25" height="25" fill="white"/>
</clipPath>
</defs>
</svg>
