<svg width="26" height="26" viewBox="0 0 26 26" fill="none" xmlns="http://www.w3.org/2000/svg">
<path d="M11.2618 4.08276C7.51674 4.08276 4.46924 7.16651 4.46924 10.9562C4.46924 14.7458 7.51674 17.8295 11.2618 17.8295C12.6116 17.8295 13.8676 17.4246 14.9261 16.7348L19.3201 21.181C19.8852 21.7529 20.8017 21.7529 21.3665 21.181C21.9316 20.6091 21.9316 19.6821 21.3665 19.1102L16.9725 14.664C17.6542 13.5929 18.0544 12.322 18.0544 10.9562C18.0544 7.16651 15.0069 4.08276 11.2618 4.08276ZM11.2618 6.83212C13.5088 6.83212 15.3374 8.68244 15.3374 10.9562C15.3374 13.2299 13.5088 15.0802 11.2618 15.0802C9.01484 15.0802 7.18628 13.2299 7.18628 10.9562C7.18628 8.68244 9.01484 6.83212 11.2618 6.83212Z" fill="white" fill-opacity="0.8"/>
</svg>
